<svg width="24" height="24" viewBox="0 0 24 24" fill="none" xmlns="http://www.w3.org/2000/svg">
<path d="M12.375 1.75C14.994 1.75 17.5055 2.79066 19.3574 4.64258C21.2093 6.4945 22.25 9.00599 22.25 11.625V11.626C22.247 14.2438 21.2056 16.7534 19.3545 18.6045C17.5034 20.4556 14.9938 21.497 12.376 21.5H4.5C3.96957 21.5 3.46101 21.2891 3.08594 20.9141C2.71086 20.539 2.5 20.0304 2.5 19.5V11.625L2.51172 11.1357C2.6327 8.69485 3.6563 6.37886 5.39258 4.64258C7.2445 2.79066 9.75599 1.75 12.375 1.75Z" fill="white" stroke="white"/>
<path d="M21.75 11.625C21.7473 14.1106 20.7587 16.4935 19.0011 18.2511C17.2435 20.0087 14.8606 20.9973 12.375 21H4.5C4.10218 21 3.72064 20.842 3.43934 20.5607C3.15804 20.2794 3 19.8978 3 19.5V11.625C3 9.1386 3.98772 6.75403 5.74587 4.99587C7.50403 3.23772 9.8886 2.25 12.375 2.25C14.8614 2.25 17.246 3.23772 19.0041 4.99587C20.7623 6.75403 21.75 9.1386 21.75 11.625Z" fill="#0B6CFF"/>
</svg>
