<svg width="232" height="32" viewBox="0 0 232 32" fill="none" xmlns="http://www.w3.org/2000/svg">
<path d="M16.5 2.33301C19.992 2.33301 23.3413 3.72022 25.8105 6.18945C28.2798 8.65868 29.667 12.008 29.667 15.5V15.501C29.6631 18.9915 28.2748 22.3384 25.8066 24.8066C23.3384 27.2748 19.9915 28.6631 16.501 28.667H6C5.29276 28.667 4.61435 28.3858 4.11426 27.8857C3.61416 27.3856 3.33301 26.7072 3.33301 26V15.5L3.33691 15.1729C3.42067 11.7994 4.79744 8.58147 7.18945 6.18945C9.65868 3.72022 13.008 2.33301 16.5 2.33301Z" fill="white" stroke="white" stroke-width="1.33333"/>
<path d="M29 15.5C28.9964 18.8141 27.6782 21.9914 25.3348 24.3348C22.9914 26.6782 19.8141 27.9964 16.5 28H6C5.46957 28 4.96086 27.7893 4.58579 27.4142C4.21071 27.0391 4 26.5304 4 26V15.5C4 12.1848 5.31696 9.00537 7.66117 6.66116C10.0054 4.31696 13.1848 3 16.5 3C19.8152 3 22.9946 4.31696 25.3388 6.66116C27.683 9.00537 29 12.1848 29 15.5Z" fill="#0B6CFF"/>
<path d="M12 21.3333V9.97333H16.752C17.5733 9.97333 18.2827 10.112 18.88 10.3893C19.4773 10.6667 19.9413 11.0613 20.272 11.5733C20.6027 12.0853 20.768 12.688 20.768 13.3813C20.768 13.904 20.656 14.368 20.432 14.7733C20.208 15.1787 19.904 15.504 19.52 15.7493C19.1467 15.9947 18.7307 16.144 18.272 16.1973L18.192 16.0373C18.928 16.0373 19.4933 16.2027 19.888 16.5333C20.2933 16.864 20.5227 17.3707 20.576 18.0533L20.864 21.3333H18.752L18.512 18.3573C18.48 17.9093 18.336 17.5787 18.08 17.3653C17.824 17.152 17.3973 17.0453 16.8 17.0453H14.08V21.3333H12ZM14.08 15.2213H16.624C17.2533 15.2213 17.744 15.072 18.096 14.7733C18.448 14.4747 18.624 14.0533 18.624 13.5093C18.624 12.9547 18.4427 12.528 18.08 12.2293C17.728 11.9307 17.2107 11.7813 16.528 11.7813H14.08V15.2213Z" fill="white"/>
<path d="M41.92 25V7.96H47.584C50.304 7.96 52.392 8.704 53.848 10.192C55.32 11.664 56.056 13.768 56.056 16.504C56.056 19.224 55.336 21.32 53.896 22.792C52.456 24.264 50.4 25 47.728 25H41.92ZM45.04 22.288H47.584C49.36 22.288 50.68 21.808 51.544 20.848C52.408 19.888 52.84 18.44 52.84 16.504C52.84 14.536 52.408 13.072 51.544 12.112C50.68 11.152 49.36 10.672 47.584 10.672H45.04V22.288ZM64.5209 25.288C63.2409 25.288 62.1289 25.016 61.1849 24.472C60.2409 23.912 59.5129 23.128 59.0009 22.12C58.4889 21.112 58.2329 19.936 58.2329 18.592C58.2329 17.248 58.4889 16.08 59.0009 15.088C59.5129 14.08 60.2329 13.296 61.1609 12.736C62.1049 12.176 63.2009 11.896 64.4489 11.896C65.6649 11.896 66.7289 12.168 67.6409 12.712C68.5689 13.256 69.2809 14.04 69.7769 15.064C70.2729 16.088 70.5209 17.32 70.5209 18.76V19.456H61.4249C61.4889 20.576 61.7929 21.424 62.3369 22C62.8969 22.56 63.6329 22.84 64.5449 22.84C65.2329 22.84 65.8009 22.688 66.2489 22.384C66.7129 22.064 67.0329 21.624 67.2089 21.064L70.3529 21.256C70.0009 22.504 69.3049 23.488 68.2649 24.208C67.2409 24.928 65.9929 25.288 64.5209 25.288ZM61.4249 17.392H67.3529C67.2889 16.352 66.9929 15.584 66.4649 15.088C65.9369 14.576 65.2649 14.32 64.4489 14.32C63.6329 14.32 62.9529 14.584 62.4089 15.112C61.8809 15.64 61.5529 16.4 61.4249 17.392ZM78.1302 25.288C76.8662 25.288 75.8022 25.104 74.9382 24.736C74.0902 24.368 73.4342 23.856 72.9702 23.2C72.5062 22.544 72.2422 21.8 72.1782 20.968L75.3222 20.824C75.4342 21.496 75.7142 22.016 76.1622 22.384C76.6102 22.752 77.2742 22.936 78.1542 22.936C78.8742 22.936 79.4342 22.824 79.8342 22.6C80.2502 22.36 80.4582 21.992 80.4582 21.496C80.4582 21.208 80.3862 20.968 80.2422 20.776C80.0982 20.584 79.8262 20.416 79.4262 20.272C79.0262 20.128 78.4342 19.984 77.6502 19.84C76.3382 19.616 75.3062 19.344 74.5542 19.024C73.8022 18.688 73.2662 18.272 72.9462 17.776C72.6422 17.28 72.4902 16.664 72.4902 15.928C72.4902 14.728 72.9462 13.76 73.8582 13.024C74.7862 12.272 76.1382 11.896 77.9142 11.896C79.0662 11.896 80.0342 12.088 80.8182 12.472C81.6022 12.84 82.2102 13.352 82.6422 14.008C83.0902 14.648 83.3702 15.384 83.4822 16.216L80.3862 16.36C80.3062 15.928 80.1622 15.552 79.9542 15.232C79.7462 14.912 79.4662 14.672 79.1142 14.512C78.7622 14.336 78.3462 14.248 77.8662 14.248C77.1462 14.248 76.6022 14.392 76.2342 14.68C75.8662 14.968 75.6822 15.352 75.6822 15.832C75.6822 16.168 75.7622 16.448 75.9222 16.672C76.0982 16.896 76.3782 17.08 76.7622 17.224C77.1462 17.352 77.6582 17.472 78.2982 17.584C79.6422 17.792 80.6982 18.064 81.4662 18.4C82.2502 18.72 82.8022 19.136 83.1222 19.648C83.4582 20.144 83.6262 20.744 83.6262 21.448C83.6262 22.264 83.3942 22.96 82.9302 23.536C82.4822 24.112 81.8422 24.552 81.0102 24.856C80.1942 25.144 79.2342 25.288 78.1302 25.288ZM86.0238 25V12.184H89.0958V25H86.0238ZM85.9758 10.48V7.744H89.1678V10.48H85.9758ZM97.7067 28.888C96.5867 28.888 95.6267 28.736 94.8267 28.432C94.0267 28.128 93.3787 27.696 92.8827 27.136C92.4027 26.592 92.0667 25.96 91.8747 25.24L95.0427 25.024C95.2027 25.504 95.4747 25.88 95.8587 26.152C96.2587 26.424 96.8747 26.56 97.7067 26.56C98.6507 26.56 99.3787 26.344 99.8907 25.912C100.403 25.496 100.659 24.84 100.659 23.944V22.312C100.355 22.936 99.8667 23.44 99.1947 23.824C98.5227 24.192 97.7707 24.376 96.9387 24.376C95.8827 24.376 94.9387 24.12 94.1067 23.608C93.2907 23.08 92.6507 22.352 92.1867 21.424C91.7227 20.48 91.4907 19.392 91.4907 18.16C91.4907 16.928 91.7147 15.848 92.1627 14.92C92.6267 13.976 93.2667 13.24 94.0827 12.712C94.8987 12.168 95.8347 11.896 96.8907 11.896C97.8187 11.896 98.6187 12.104 99.2907 12.52C99.9627 12.936 100.451 13.488 100.755 14.176V12.184H103.755V23.872C103.755 24.96 103.499 25.88 102.987 26.632C102.491 27.384 101.787 27.944 100.875 28.312C99.9787 28.696 98.9227 28.888 97.7067 28.888ZM97.6587 21.976C98.5707 21.976 99.2987 21.64 99.8427 20.968C100.387 20.28 100.667 19.336 100.683 18.136C100.699 17.336 100.579 16.656 100.323 16.096C100.083 15.52 99.7307 15.08 99.2667 14.776C98.8187 14.456 98.2827 14.296 97.6587 14.296C96.7147 14.296 95.9787 14.648 95.4507 15.352C94.9387 16.04 94.6827 16.968 94.6827 18.136C94.6827 19.304 94.9467 20.24 95.4747 20.944C96.0187 21.632 96.7467 21.976 97.6587 21.976ZM107.118 25V12.184H109.902L110.022 15.784L109.662 15.64C109.79 14.744 110.054 14.024 110.454 13.48C110.854 12.936 111.342 12.536 111.918 12.28C112.494 12.024 113.126 11.896 113.814 11.896C114.758 11.896 115.55 12.104 116.19 12.52C116.846 12.936 117.342 13.512 117.678 14.248C118.014 14.968 118.182 15.808 118.182 16.768V25H115.11V17.752C115.11 17.032 115.038 16.424 114.894 15.928C114.75 15.432 114.51 15.056 114.174 14.8C113.854 14.528 113.422 14.392 112.878 14.392C112.062 14.392 111.406 14.68 110.91 15.256C110.43 15.832 110.19 16.664 110.19 17.752V25H107.118ZM127.443 25V7.96H134.571C135.803 7.96 136.867 8.168 137.763 8.584C138.659 9 139.355 9.592 139.851 10.36C140.347 11.128 140.595 12.032 140.595 13.072C140.595 13.856 140.427 14.552 140.091 15.16C139.755 15.768 139.299 16.256 138.723 16.624C138.163 16.992 137.539 17.216 136.851 17.296L136.731 17.056C137.835 17.056 138.683 17.304 139.275 17.8C139.883 18.296 140.227 19.056 140.307 20.08L140.739 25H137.571L137.211 20.536C137.163 19.864 136.947 19.368 136.563 19.048C136.179 18.728 135.539 18.568 134.643 18.568H130.563V25H127.443ZM130.563 15.832H134.379C135.323 15.832 136.059 15.608 136.587 15.16C137.115 14.712 137.379 14.08 137.379 13.264C137.379 12.432 137.107 11.792 136.563 11.344C136.035 10.896 135.259 10.672 134.235 10.672H130.563V15.832ZM148.919 25.288C147.639 25.288 146.527 25.016 145.583 24.472C144.639 23.912 143.911 23.128 143.399 22.12C142.887 21.112 142.631 19.936 142.631 18.592C142.631 17.248 142.887 16.08 143.399 15.088C143.911 14.08 144.631 13.296 145.559 12.736C146.503 12.176 147.599 11.896 148.847 11.896C150.063 11.896 151.127 12.168 152.039 12.712C152.967 13.256 153.679 14.04 154.175 15.064C154.671 16.088 154.919 17.32 154.919 18.76V19.456H145.823C145.887 20.576 146.191 21.424 146.735 22C147.295 22.56 148.031 22.84 148.943 22.84C149.631 22.84 150.199 22.688 150.647 22.384C151.111 22.064 151.431 21.624 151.607 21.064L154.751 21.256C154.399 22.504 153.703 23.488 152.663 24.208C151.639 24.928 150.391 25.288 148.919 25.288ZM145.823 17.392H151.751C151.687 16.352 151.391 15.584 150.863 15.088C150.335 14.576 149.663 14.32 148.847 14.32C148.031 14.32 147.351 14.584 146.807 15.112C146.279 15.64 145.951 16.4 145.823 17.392ZM160.379 25L155.699 12.184H158.939L162.203 21.904L165.467 12.184H168.707L164.027 25H160.379ZM170.657 25V12.184H173.729V25H170.657ZM170.609 10.48V7.744H173.801V10.48H170.609ZM182.412 25.288C181.132 25.288 180.02 25.016 179.076 24.472C178.132 23.912 177.404 23.128 176.892 22.12C176.38 21.112 176.124 19.936 176.124 18.592C176.124 17.248 176.38 16.08 176.892 15.088C177.404 14.08 178.124 13.296 179.052 12.736C179.996 12.176 181.092 11.896 182.34 11.896C183.556 11.896 184.62 12.168 185.532 12.712C186.46 13.256 187.172 14.04 187.668 15.064C188.164 16.088 188.411 17.32 188.411 18.76V19.456H179.316C179.38 20.576 179.684 21.424 180.228 22C180.788 22.56 181.524 22.84 182.436 22.84C183.124 22.84 183.692 22.688 184.14 22.384C184.604 22.064 184.924 21.624 185.1 21.064L188.244 21.256C187.892 22.504 187.196 23.488 186.156 24.208C185.132 24.928 183.884 25.288 182.412 25.288ZM179.316 17.392H185.244C185.18 16.352 184.884 15.584 184.356 15.088C183.828 14.576 183.156 14.32 182.34 14.32C181.524 14.32 180.844 14.584 180.3 15.112C179.772 15.64 179.444 16.4 179.316 17.392ZM193.056 25L189.192 12.184H192.336L194.832 21.52L197.4 12.184H200.088L202.68 21.52L205.176 12.184H208.32L204.456 25H201.288L198.744 16.408L196.224 25H193.056ZM215.365 25.288C214.085 25.288 212.973 25.016 212.029 24.472C211.085 23.912 210.357 23.128 209.845 22.12C209.333 21.112 209.077 19.936 209.077 18.592C209.077 17.248 209.333 16.08 209.845 15.088C210.357 14.08 211.077 13.296 212.005 12.736C212.949 12.176 214.045 11.896 215.293 11.896C216.509 11.896 217.573 12.168 218.485 12.712C219.413 13.256 220.125 14.04 220.621 15.064C221.117 16.088 221.365 17.32 221.365 18.76V19.456H212.269C212.333 20.576 212.637 21.424 213.181 22C213.741 22.56 214.477 22.84 215.389 22.84C216.077 22.84 216.645 22.688 217.093 22.384C217.557 22.064 217.877 21.624 218.053 21.064L221.197 21.256C220.845 22.504 220.149 23.488 219.109 24.208C218.085 24.928 216.837 25.288 215.365 25.288ZM212.269 17.392H218.197C218.133 16.352 217.837 15.584 217.309 15.088C216.781 14.576 216.109 14.32 215.293 14.32C214.477 14.32 213.797 14.584 213.253 15.112C212.725 15.64 212.397 16.4 212.269 17.392ZM223.766 25V12.184H226.646L226.766 15.736L226.502 15.688C226.694 14.456 227.054 13.568 227.582 13.024C228.126 12.464 228.862 12.184 229.79 12.184H230.966V14.824H229.766C229.11 14.824 228.566 14.92 228.134 15.112C227.702 15.304 227.374 15.608 227.15 16.024C226.942 16.424 226.838 16.952 226.838 17.608V25H223.766Z" fill="white"/>
</svg>
